<svg width="128" height="128" xmlns="http://www.w3.org/2000/svg" xmlns:xlink="http://www.w3.org/1999/xlink" xml:space="preserve" overflow="hidden"><defs><clipPath id="clip0"><rect x="285" y="360" width="128" height="128"/></clipPath></defs><g clip-path="url(#clip0)" transform="translate(-285 -360)"><path d="M386.333 384C386.333 389.891 369.619 394.667 349 394.667 328.381 394.667 311.667 389.891 311.667 384 311.667 378.109 328.381 373.333 349 373.333 369.619 373.333 386.333 378.109 386.333 384Z" stroke="#FFFFFF" stroke-width="1.33333" fill="#FFFFFF"/><path d="M375.667 410.667C374.067 410.667 373 409.6 373 408 373 406.4 374.067 405.333 375.667 405.333 377.267 405.333 378.333 406.4 378.333 408 378.333 409.6 377.267 410.667 375.667 410.667ZM349 400C328.467 400 311.667 395.2 311.667 389.333L311.667 410.667C311.667 416.533 328.467 421.333 349 421.333 369.533 421.333 386.333 416.533 386.333 410.667L386.333 389.333C386.333 395.2 369.533 400 349 400Z" stroke="#FFFFFF" stroke-width="1.33333" fill="#FFFFFF"/><path d="M375.667 437.333C374.067 437.333 373 436.267 373 434.667 373 433.067 374.067 432 375.667 432 377.267 432 378.333 433.067 378.333 434.667 378.333 436.267 377.267 437.333 375.667 437.333ZM349 426.667C328.467 426.667 311.667 421.867 311.667 416L311.667 437.333C311.667 443.2 328.467 448 349 448 369.533 448 386.333 443.2 386.333 437.333L386.333 416C386.333 421.867 369.533 426.667 349 426.667Z" stroke="#FFFFFF" stroke-width="1.33333" fill="#FFFFFF"/><path d="M375.667 464C374.067 464 373 462.933 373 461.333 373 459.733 374.067 458.667 375.667 458.667 377.267 458.667 378.333 459.733 378.333 461.333 378.333 462.933 377.267 464 375.667 464ZM349 453.333C328.467 453.333 311.667 448.533 311.667 442.667L311.667 464C311.667 469.867 328.467 474.667 349 474.667 369.533 474.667 386.333 469.867 386.333 464L386.333 442.667C386.333 448.533 369.533 453.333 349 453.333Z" stroke="#FFFFFF" stroke-width="1.33333" fill="#FFFFFF"/></g></svg>